<svg width="16" height="4" viewBox="0 0 16 4" fill="none" xmlns="http://www.w3.org/2000/svg">
<path d="M3.07812 2C3.07812 2.38539 2.92486 2.75483 2.65234 3.02734C2.37983 3.29986 2.01039 3.45312 1.625 3.45312C1.37353 3.45312 1.12697 3.38792 0.90918 3.26465L0.817383 3.20801C0.6083 3.06823 0.439689 2.87689 0.327148 2.65332L0.282227 2.55566C0.18609 2.32335 0.152014 2.0706 0.182617 1.82227L0.200195 1.7168C0.256265 1.43492 0.394433 1.17588 0.597656 0.972656C0.775561 0.794752 0.995996 0.666413 1.2373 0.599609L1.3418 0.575195C1.5883 0.526198 1.84255 0.541778 2.08008 0.620117L2.18066 0.657227C2.41302 0.75347 2.61647 0.908205 2.77051 1.10547L2.83301 1.19238C2.99268 1.43135 3.07812 1.7126 3.07812 2ZM9.45312 2C9.45312 2.33721 9.33589 2.66232 9.12402 2.9209L9.02734 3.02734C8.75483 3.29986 8.38539 3.45312 8 3.45312C7.7126 3.45312 7.43135 3.36768 7.19238 3.20801C6.9833 3.06823 6.81469 2.87689 6.70215 2.65332L6.65723 2.55566C6.56109 2.32335 6.52701 2.0706 6.55762 1.82227L6.5752 1.7168C6.63127 1.43492 6.76943 1.17588 6.97266 0.972656C7.15056 0.794752 7.371 0.666413 7.6123 0.599609L7.7168 0.575195C7.9633 0.526198 8.21755 0.541778 8.45508 0.620117L8.55566 0.657227C8.78802 0.75347 8.99147 0.908206 9.14551 1.10547L9.20801 1.19238C9.36768 1.43135 9.45312 1.7126 9.45312 2ZM15.7178 1.44434C15.8139 1.67665 15.848 1.9294 15.8174 2.17773L15.7998 2.2832C15.7437 2.56508 15.6056 2.82412 15.4023 3.02734C15.1991 3.23057 14.9401 3.36874 14.6582 3.4248C14.4117 3.4738 14.1575 3.45822 13.9199 3.37988L13.8193 3.34277C13.587 3.24653 13.3835 3.09179 13.2295 2.89453L13.167 2.80762C13.0073 2.56865 12.9219 2.2874 12.9219 2C12.9219 1.61461 13.0751 1.24517 13.3477 0.972656C13.6202 0.700143 13.9896 0.546875 14.375 0.546875C14.6265 0.546875 14.873 0.612075 15.0908 0.735352L15.1826 0.791992C15.3917 0.931774 15.5603 1.12311 15.6729 1.34668L15.7178 1.44434Z" fill="#160211" stroke="#160211" stroke-width="0.09375"/>
</svg>
