<svg width="24" height="24" viewBox="0 0 24 24" fill="none" xmlns="http://www.w3.org/2000/svg">
<path d="M12.8828 18C15.2891 18 16.7812 16.75 16.7812 14.7734C16.7812 13.3203 15.6953 12.1953 14.2031 12.0859V11.9453C15.3594 11.7734 16.2422 10.7344 16.2422 9.53906C16.2422 7.79688 14.9375 6.72656 12.75 6.72656H7.82031V18H12.8828ZM10.1797 8.53125H12.1484C13.2734 8.53125 13.9219 9.07031 13.9219 9.96875C13.9219 10.875 13.2266 11.3984 11.9531 11.3984H10.1797V8.53125ZM10.1797 16.1953V12.9922H12.2266C13.6172 12.9922 14.375 13.5391 14.375 14.5703C14.375 15.625 13.6406 16.1953 12.2812 16.1953H10.1797Z" fill="#1C2E45" fill-opacity="0.6"/>
</svg>
