<svg width="24" height="24" viewBox="0 0 24 24" fill="none" xmlns="http://www.w3.org/2000/svg">
<g clip-path="url(#clip0_2043_425)">
<path d="M9.16491 7.36806C9.4766 7.02048 9.44751 6.48603 9.09993 6.17434C8.75234 5.86264 8.2179 5.89174 7.90621 6.23932C7.90621 6.23932 3.83746 10.6722 3.54948 10.9933C3.2615 11.3145 3.2615 11.6893 3.54948 12.0105L7.90621 16.7607C8.2179 17.1083 8.75234 17.1374 9.09993 16.8257C9.44751 16.514 9.4766 15.9795 9.16491 15.632L5.31428 11.5L9.16491 7.36806Z" fill="#1C2E45" fill-opacity="0.6"/>
<path d="M14.341 7.36806C14.0293 7.02048 14.0584 6.48603 14.406 6.17434C14.7536 5.86264 15.288 5.89174 15.5997 6.23932C15.5997 6.23932 19.6684 10.6722 19.9564 10.9933C20.2444 11.3145 20.2444 11.6893 19.9564 12.0105L15.5997 16.7607C15.288 17.1083 14.7536 17.1374 14.406 16.8257C14.0584 16.514 14.0293 15.9795 14.341 15.632L18.1916 11.5L14.341 7.36806Z" fill="#1C2E45" fill-opacity="0.6"/>
</g>
<defs>
<clipPath id="clip0_2043_425">
<rect width="24" height="24" fill="white"/>
</clipPath>
</defs>
</svg>
