<svg width="24" height="24" viewBox="0 0 24 24" fill="none" xmlns="http://www.w3.org/2000/svg">
<path d="M4.99219 4.008H19.0082C20.6642 4.008 22.0082 5.352 22.0082 7.008V16.992C22.0082 18.648 20.6642 19.992 19.0082 19.992H4.99219C3.33619 19.992 1.99219 18.648 1.99219 16.992V7.008C1.99219 5.352 3.33619 4.008 4.99219 4.008ZM19.0082 5.808H4.99219C4.32019 5.808 3.79219 6.336 3.79219 7.008V16.992C3.79219 17.664 4.32019 18.192 4.99219 18.192H19.0082C19.6802 18.192 20.2082 17.664 20.2082 16.992V7.008C20.2082 6.336 19.6802 5.808 19.0082 5.808ZM5.73619 17.76L9.74419 13.752C10.0322 13.464 10.4882 13.416 10.8242 13.608L12.5762 14.64L16.7042 9.816C17.0162 9.456 17.5202 9.384 17.9042 9.648L20.1842 11.256V13.464L17.5202 11.592L13.4642 16.368C13.1762 16.704 12.6962 16.776 12.3362 16.56L10.5122 15.528L7.84819 18.192H5.49619C5.54419 18.024 5.61619 17.88 5.73619 17.76ZM10.9922 10.248C10.9922 11.76 9.76819 13.008 8.25619 13.008C6.74419 13.008 5.49619 11.76 5.49619 10.248C5.49619 8.736 6.72019 7.488 8.25619 7.488C9.79219 7.488 10.9922 8.736 10.9922 10.248ZM9.50419 10.248C9.50419 9.552 8.95219 9 8.25619 9C7.56019 9 7.00819 9.552 7.00819 10.248C7.00819 10.944 7.56019 11.496 8.25619 11.496C8.95219 11.496 9.50419 10.944 9.50419 10.248Z" fill="#1C2E45" fill-opacity="0.6"/>
</svg>
