<svg width="24" height="24" viewBox="0 0 24 24" fill="none" xmlns="http://www.w3.org/2000/svg">
<path d="M3.31188 7.99201V4.75201H3.26388L2.23188 5.42401V4.51201L3.31188 3.76801H4.39188V7.99201H3.31188ZM1.84788 11.064C1.84788 10.224 2.49588 9.64801 3.47988 9.64801C4.41588 9.64801 5.06388 10.152 5.06388 10.92C5.06388 11.4 4.79988 11.808 4.03188 12.456L3.33588 13.104V13.152H5.11188V13.992H1.91988V13.272L3.23988 12.024C3.86388 11.448 4.00788 11.232 4.03188 10.992C4.03188 10.68 3.79188 10.464 3.45588 10.464C3.09588 10.464 2.83188 10.704 2.83188 11.064V11.088H1.84788V11.064ZM2.95188 18.216V17.472H3.45588C3.81588 17.472 4.05588 17.28 4.05588 16.968C4.05588 16.656 3.81588 16.464 3.45588 16.464C3.09588 16.464 2.83188 16.68 2.83188 17.016H1.84788C1.87188 16.2 2.49588 15.672 3.47988 15.648C4.41588 15.648 5.06388 16.128 5.06388 16.824C5.06388 17.304 4.72788 17.688 4.27188 17.76V17.832C4.84788 17.904 5.23188 18.288 5.20788 18.816C5.20788 19.584 4.48788 20.112 3.45588 20.112C2.47188 20.112 1.79988 19.584 1.77588 18.744H2.80788C2.83188 19.056 3.07188 19.272 3.47988 19.272C3.86388 19.272 4.12788 19.056 4.12788 18.744C4.12788 18.408 3.88788 18.216 3.45588 18.216H2.95188ZM7.99188 6.19201C7.99188 5.76001 8.35188 5.40001 8.80788 5.40001H21.1919C21.6239 5.40001 21.9839 5.76001 22.0079 6.19201C22.0079 6.62401 21.6479 6.98401 21.1919 7.00801H8.80788C8.37588 7.00801 8.01588 6.64801 7.99188 6.19201ZM7.99188 12.192C7.99188 11.76 8.35188 11.4 8.80788 11.4H21.1919C21.6239 11.4 21.9839 11.76 22.0079 12.192C22.0319 12.624 21.6479 12.984 21.1919 13.008H8.80788C8.37588 13.008 8.01588 12.648 7.99188 12.192ZM7.99188 18.192C7.99188 17.76 8.35188 17.4 8.80788 17.4H21.1919C21.6239 17.4 21.9839 17.76 22.0079 18.192C22.0319 18.624 21.6479 18.984 21.1919 19.008H8.80788C8.37588 19.008 8.01588 18.648 7.99188 18.192Z" fill="#1C2E45" fill-opacity="0.6"/>
</svg>
