<svg width="24" height="24" viewBox="0 0 24 24" fill="none" xmlns="http://www.w3.org/2000/svg">
<path d="M4.70605 17H6.62695L8.95117 13.459H9.06738L11.3574 17H13.3945L10.1406 12.0713L13.4492 7.13574H11.4668L9.18359 10.7588H9.06738L6.81836 7.13574H4.7334L7.93262 12.0303L4.70605 17Z" fill="#1C2E45" fill-opacity="0.6"/>
<path d="M14.6455 14.5391H15.9033C15.9033 14.0059 16.2998 13.6162 16.9355 13.6162C17.5439 13.6162 17.8926 13.9717 17.8926 14.4023C17.8926 14.7715 17.7354 15.0312 16.9492 15.7217L14.7275 17.6768V18.6475H19.3076V17.5059H16.5527V17.4307L17.8584 16.3369C18.9043 15.4551 19.2256 14.9834 19.2256 14.2793C19.2256 13.2539 18.3711 12.5156 17.0107 12.5156C15.6162 12.5156 14.6455 13.3359 14.6455 14.5391Z" fill="#1C2E45" fill-opacity="0.6"/>
</svg>
