<svg width="24" height="24" viewBox="0 0 24 24" fill="none" xmlns="http://www.w3.org/2000/svg">
<path d="M4.70605 17H6.62695L8.95117 13.459H9.06738L11.3574 17H13.3945L10.1406 12.0713L13.4492 7.13574H11.4668L9.18359 10.7588H9.06738L6.81836 7.13574H4.7334L7.93262 12.0303L4.70605 17Z" fill="#1C2E45" fill-opacity="0.6"/>
<path d="M14.6455 7.97656H15.9033C15.9033 7.44336 16.2998 7.05371 16.9355 7.05371C17.5439 7.05371 17.8926 7.40918 17.8926 7.83984C17.8926 8.20898 17.7354 8.46875 16.9492 9.15918L14.7275 11.1143V12.085H19.3076V10.9434H16.5527V10.8682L17.8584 9.77441C18.9043 8.89258 19.2256 8.4209 19.2256 7.7168C19.2256 6.69141 18.3711 5.95312 17.0107 5.95312C15.6162 5.95312 14.6455 6.77344 14.6455 7.97656Z" fill="#1C2E45" fill-opacity="0.6"/>
</svg>
