<svg width="24" height="24" viewBox="0 0 24 24" fill="none" xmlns="http://www.w3.org/2000/svg">
<path d="M3.504 7.8C2.496 7.8 1.896 7.176 1.896 6.288C1.896 5.4 2.496 4.776 3.504 4.776C4.512 4.776 5.112 5.4 5.112 6.288C5.112 7.176 4.512 7.8 3.504 7.8ZM3.504 13.8C2.496 13.8 1.896 13.176 1.896 12.288C1.896 11.4 2.496 10.776 3.504 10.776C4.512 10.776 5.112 11.4 5.112 12.288C5.112 13.176 4.512 13.8 3.504 13.8ZM3.504 19.8C2.496 19.8 1.896 19.176 1.896 18.288C1.896 17.4 2.496 16.776 3.504 16.776C4.512 16.776 5.112 17.4 5.112 18.288C5.112 19.176 4.512 19.8 3.504 19.8ZM7.992 6.192C7.992 5.76 8.352 5.4 8.808 5.4H21.192C21.624 5.4 21.984 5.76 22.008 6.192C22.008 6.624 21.648 6.984 21.192 7.008H8.808C8.376 7.008 8.016 6.648 7.992 6.192ZM7.992 12.192C7.992 11.76 8.352 11.4 8.808 11.4H21.192C21.624 11.4 21.984 11.76 22.008 12.192C22.032 12.624 21.648 12.984 21.192 13.008H8.808C8.376 13.008 8.016 12.648 7.992 12.192ZM7.992 18.192C7.992 17.76 8.352 17.4 8.808 17.4H21.192C21.624 17.4 21.984 17.76 22.008 18.192C22.032 18.624 21.648 18.984 21.192 19.008H8.808C8.376 19.008 8.016 18.648 7.992 18.192Z" fill="#1C2E45" fill-opacity="0.6"/>
</svg>
